<svg width="150" height="26" viewBox="0 0 150 26" fill="none" xmlns="http://www.w3.org/2000/svg">
<path d="M15.0066 17.4V20H0.606641V2.5H3.30664V17.4H15.0066ZM39.1426 13.425C39.1426 14.7583 38.7759 15.9417 38.0426 16.975C37.3092 17.9917 36.2926 18.7917 34.9926 19.375C33.6926 19.9583 32.1842 20.25 30.4676 20.25C28.7509 20.25 27.2342 19.9583 25.9176 19.375C24.6176 18.7917 23.6009 17.9917 22.8676 16.975C22.1342 15.9417 21.7676 14.7583 21.7676 13.425C21.7676 12.0917 22.1342 10.9167 22.8676 9.9C23.6009 8.86667 24.6176 8.05833 25.9176 7.475C27.2342 6.89167 28.7509 6.6 30.4676 6.6C32.1842 6.6 33.6926 6.89167 34.9926 7.475C36.2926 8.05833 37.3092 8.86667 38.0426 9.9C38.7759 10.9167 39.1426 12.0917 39.1426 13.425ZM36.5176 13.425C36.5509 12.5417 36.2926 11.7667 35.7426 11.1C35.2092 10.4167 34.4842 9.89167 33.5676 9.525C32.6509 9.14167 31.6176 8.95 30.4676 8.95C29.3342 8.95 28.3009 9.14167 27.3676 9.525C26.4342 9.89167 25.7009 10.4167 25.1676 11.1C24.6342 11.7667 24.3759 12.5417 24.3926 13.425C24.3759 14.2917 24.6342 15.0667 25.1676 15.75C25.7009 16.4167 26.4342 16.9417 27.3676 17.325C28.3009 17.7083 29.3342 17.9 30.4676 17.9C31.6176 17.9 32.6509 17.7083 33.5676 17.325C34.4842 16.9417 35.2092 16.4167 35.7426 15.75C36.2926 15.0667 36.5509 14.2917 36.5176 13.425ZM61.9945 6.875V20H59.4195V17.725C59.0695 18.1583 58.5779 18.5667 57.9445 18.95C57.3112 19.3333 56.5862 19.65 55.7695 19.9C54.9529 20.1333 54.0945 20.25 53.1945 20.25C51.6112 20.25 50.2279 19.9583 49.0445 19.375C47.8779 18.7917 46.9779 17.9833 46.3445 16.95C45.7112 15.9167 45.3945 14.7417 45.3945 13.425C45.3945 12.0917 45.7279 10.9167 46.3945 9.9C47.0779 8.86667 48.0112 8.05833 49.1945 7.475C50.3945 6.89167 51.7779 6.6 53.3445 6.6C54.6945 6.6 55.9029 6.81667 56.9695 7.25C58.0529 7.66667 58.8695 8.16667 59.4195 8.75V6.875H61.9945ZM53.7695 17.875C54.9195 17.875 55.9195 17.6833 56.7695 17.3C57.6362 16.9 58.3112 16.3667 58.7945 15.7C59.2779 15.0333 59.5195 14.275 59.5195 13.425C59.5195 12.575 59.2779 11.8167 58.7945 11.15C58.3112 10.4833 57.6362 9.95833 56.7695 9.575C55.9195 9.19167 54.9195 9 53.7695 9C52.6529 9 51.6612 9.19167 50.7945 9.575C49.9279 9.95833 49.2445 10.4833 48.7445 11.15C48.2612 11.8167 48.0195 12.575 48.0195 13.425C48.0195 14.275 48.2612 15.0333 48.7445 15.7C49.2445 16.3667 49.9279 16.9 50.7945 17.3C51.6612 17.6833 52.6529 17.875 53.7695 17.875ZM86.6039 1.5V20H84.0289V17.725C83.6789 18.1583 83.1872 18.5667 82.5539 18.95C81.9206 19.3333 81.1956 19.65 80.3789 19.9C79.5622 20.1333 78.7039 20.25 77.8039 20.25C76.2206 20.25 74.8372 19.9583 73.6539 19.375C72.4872 18.7917 71.5872 17.9833 70.9539 16.95C70.3206 15.9167 70.0039 14.7417 70.0039 13.425C70.0039 12.0917 70.3372 10.9167 71.0039 9.9C71.6872 8.86667 72.6206 8.05833 73.8039 7.475C75.0039 6.89167 76.3872 6.6 77.9539 6.6C79.3039 6.6 80.5122 6.81667 81.5789 7.25C82.6622 7.66667 83.4789 8.16667 84.0289 8.75V1.5H86.6039ZM78.3789 17.875C79.5289 17.875 80.5289 17.6833 81.3789 17.3C82.2456 16.9 82.9206 16.3667 83.4039 15.7C83.8872 15.0333 84.1289 14.275 84.1289 13.425C84.1289 12.575 83.8872 11.8167 83.4039 11.15C82.9206 10.4833 82.2456 9.95833 81.3789 9.575C80.5289 9.19167 79.5289 9 78.3789 9C77.2622 9 76.2706 9.19167 75.4039 9.575C74.5372 9.95833 73.8539 10.4833 73.3539 11.15C72.8706 11.8167 72.6289 12.575 72.6289 13.425C72.6289 14.275 72.8706 15.0333 73.3539 15.7C73.8539 16.3667 74.5372 16.9 75.4039 17.3C76.2706 17.6833 77.2622 17.875 78.3789 17.875ZM97.8256 4.025C97.2423 4.025 96.8089 3.875 96.5256 3.575C96.2423 3.275 96.1006 2.88333 96.1006 2.4C96.1006 1.98333 96.2423 1.60833 96.5256 1.275C96.8089 0.941666 97.2423 0.774999 97.8256 0.774999C98.4089 0.774999 98.8423 0.924999 99.1256 1.225C99.4089 1.525 99.5506 1.91667 99.5506 2.4C99.5506 2.81667 99.4089 3.19167 99.1256 3.525C98.8423 3.85833 98.4089 4.025 97.8256 4.025ZM99.1006 20H96.5256V6.875H99.1006V20ZM118.178 6.6C119.561 6.6 120.711 6.85833 121.628 7.375C122.561 7.875 123.261 8.55833 123.728 9.425C124.194 10.275 124.428 11.2167 124.428 12.25V20H121.853V12.675C121.853 11.9417 121.661 11.3 121.278 10.75C120.894 10.2 120.378 9.775 119.728 9.475C119.078 9.15833 118.361 9 117.578 9C116.861 9 116.194 9.13333 115.578 9.4C114.978 9.65 114.453 9.98333 114.003 10.4C113.569 10.8 113.228 11.2333 112.978 11.7C112.744 12.1667 112.628 12.6167 112.628 13.05V20H110.053V6.875H112.628V9.3C113.244 8.58333 114.019 7.95833 114.953 7.425C115.886 6.875 116.961 6.6 118.178 6.6ZM136.819 22.025C137.369 22.2917 138.102 22.5917 139.019 22.925C139.952 23.275 141.077 23.45 142.394 23.45C143.844 23.45 145.036 23.0167 145.969 22.15C146.902 21.3 147.369 20.0833 147.369 18.5V17.725C147.069 18.1583 146.586 18.5667 145.919 18.95C145.269 19.3333 144.494 19.65 143.594 19.9C142.711 20.1333 141.769 20.25 140.769 20.25C139.252 20.25 137.919 19.9583 136.769 19.375C135.636 18.7917 134.752 17.9833 134.119 16.95C133.486 15.9167 133.169 14.7417 133.169 13.425C133.169 12.0917 133.502 10.9167 134.169 9.9C134.852 8.86667 135.794 8.05833 136.994 7.475C138.211 6.89167 139.611 6.6 141.194 6.6C142.144 6.6 143.019 6.70833 143.819 6.925C144.636 7.14167 145.344 7.41667 145.944 7.75C146.561 8.06667 147.036 8.4 147.369 8.75V6.875H149.944V18.2C149.944 19.5 149.736 20.6167 149.319 21.55C148.902 22.5 148.336 23.2833 147.619 23.9C146.902 24.5333 146.094 25 145.194 25.3C144.294 25.6 143.361 25.75 142.394 25.75C140.877 25.75 139.577 25.5917 138.494 25.275C137.427 24.9583 136.569 24.5917 135.919 24.175L136.819 22.025ZM141.794 8.95C140.627 8.95 139.594 9.15 138.694 9.55C137.794 9.93333 137.086 10.4667 136.569 11.15C136.052 11.8167 135.794 12.575 135.794 13.425C135.794 14.275 136.052 15.0333 136.569 15.7C137.086 16.3667 137.794 16.9 138.694 17.3C139.594 17.6833 140.627 17.875 141.794 17.875C142.927 17.875 143.919 17.6833 144.769 17.3C145.619 16.9167 146.277 16.3917 146.744 15.725C147.227 15.0417 147.469 14.275 147.469 13.425C147.469 12.5583 147.227 11.7917 146.744 11.125C146.277 10.4583 145.619 9.93333 144.769 9.55C143.919 9.15 142.927 8.95 141.794 8.95Z" fill="black"/>
</svg>
